{"title":"Naani The Magic Man (2015) Hindi - 480p WebHD - X264 - Team IcTv","uid":12010963,"size":1079079453,"categoryP":"video","categoryS":"movies","magnet":"?xt=urn:btih:8e69bac6dcfd743d4f2e94df927d3346e22537d7&amp;dn=Naani+The+Magic+Man+%282015%29+Hindi+-+480p+WebHD+-+X264+-+Team+IcTv&amp;tr=udp%3A%2F%2Ftracker.openbittorrent.com%3A80&amp;tr=udp%3A%2F%2Fopen.demonii.com%3A1337&amp;tr=udp%3A%2F%2Ftracker.coppersurfer.tk%3A6969&amp;tr=udp%3A%2F%2Fexodus.desync.com%3A6969","seeders":4,"leechers":1,"uploader":"SS132203","files":2,"time":1434118916,"description":"Naani The Magic Man (2015) Hindi - 480p WebHD - X264 - Team IcTv Exclusive\n &lt;a href=&quot;\nhttp://imgsparrow.co/image/47&quot; rel=&quot;nofollow&quot; target=&quot;_NEW&quot;&gt;\nhttp://imgsparrow.co/image/47&lt;/a&gt;\n &lt;a href=&quot;\nhttp://imgsparrow.co/image/k1&quot; rel=&quot;nofollow&quot; target=&quot;_NEW&quot;&gt;\nhttp://imgsparrow.co/image/k1&lt;/a&gt;\n\nAll Credit Goes To Intellect Clever &amp; IcTv\nSample Within Torrent\n\nMovie Info\nYear : 2015\nBanner : WAM\nCast : Mahesh Babu,Amisha Patel\nVideo: AVC\nAudio : AAC\nGenre : Horror\nSubtitles : NONE\nResolution : 720P-1080P\nRuntime : 2hr 29min xx\nSource : Team IcTv \n\nFormat                      : MPEG-4\nFormat profile              : Base Media\nCodec ID                    : isom\nFile size                   : 1.00 GiB\nDuration                    : 2h 29mn\nOverall bit rate            : 963 Kbps\nWriting application         : Lavf54.63.104\n\nVideo\nID                          : 1\nFormat                      : AVC\nFormat/Info                 : Advanced Video Codec\nFormat profile              : Main@L3\nFormat settings, CABAC      : Yes\nFormat settings, ReFrames   : 3 frames\nCodec ID                    : avc1\nCodec ID/Info               : Advanced Video Coding\nDuration                    : 2h 29mn\nBit rate                    : 831 Kbps\nWidth                       : 854 pixels\nHeight                      : 480 pixels\nDisplay aspect ratio        : 16:9\nFrame rate mode             : Constant\nFrame rate                  : 25.000 fps\nColor space                 : YUV\nChroma subsampling          : 4:2:0\nBit depth                   : 8 bits\nScan type                   : Progressive\nBits/(Pixel*Frame)          : 0.081\nStream size                 : 888 MiB (86%)\n\nAudio\nID                          : 2\nFormat                      : AAC\nFormat/Info                 : Advanced Audio Codec\nFormat profile              : LC\nCodec ID                    : 40\nDuration                    : 2h 29mn\nBit rate mode               : Constant\nBit rate                    : 126 Kbps\nChannel(s)                  : 2 channels\nChannel positions           : Front: L R\nSampling rate               : 44.1 KHz\nCompression mode            : Lossy\nStream size                 : 134 MiB (13%)\n\nScreens : - \n &lt;a href=&quot;\nhttp://imgsparrow.co/image/n6&quot; rel=&quot;nofollow&quot; target=&quot;_NEW&quot;&gt;\nhttp://imgsparrow.co/image/n6&lt;/a&gt; &lt;a href=&quot;\nhttp://imgsparrow.co/image/n8&quot; rel=&quot;nofollow&quot; target=&quot;_NEW&quot;&gt;\nhttp://imgsparrow.co/image/n8&lt;/a&gt; &lt;a href=&quot;\nhttp://imgsparrow.co/image/n9&quot; rel=&quot;nofollow&quot; target=&quot;_NEW&quot;&gt;\nhttp://imgsparrow.co/image/n9&lt;/a&gt; &lt;a href=&quot;\nhttp://imgsparrow.co/image/nL&quot; rel=&quot;nofollow&quot; target=&quot;_NEW&quot;&gt;\nhttp://imgsparrow.co/image/nL&lt;/a&gt; &lt;a href=&quot;\nhttp://imgsparrow.co/image/nN&quot; rel=&quot;nofollow&quot; target=&quot;_NEW&quot;&gt;\nhttp://imgsparrow.co/image/nN&lt;/a&gt; &lt;a href=&quot;\nhttp://imgsparrow.co/image/nt&quot; rel=&quot;nofollow&quot; target=&quot;_NEW&quot;&gt;\nhttp://imgsparrow.co/image/nt&lt;/a&gt; &lt;a href=&quot;\nhttp://imgsparrow.co/image/nE&quot; rel=&quot;nofollow&quot; target=&quot;_NEW&quot;&gt;\nhttp://imgsparrow.co/image/nE&lt;/a&gt; &lt;a href=&quot;\nhttp://imgsparrow.co/image/nJ&quot; rel=&quot;nofollow&quot; target=&quot;_NEW&quot;&gt;\nhttp://imgsparrow.co/image/nJ&lt;/a&gt; &lt;a href=&quot;\nhttp://imgsparrow.co/image/nU&quot; rel=&quot;nofollow&quot; target=&quot;_NEW&quot;&gt;\nhttp://imgsparrow.co/image/nU&lt;/a&gt; &lt;a href=&quot;\nhttp://imgsparrow.co/image/nu&quot; rel=&quot;nofollow&quot; target=&quot;_NEW&quot;&gt;\nhttp://imgsparrow.co/image/nu&lt;/a&gt;\n &lt;a href=&quot;\nhttp://imgsparrow.co/image/N2&quot; rel=&quot;nofollow&quot; target=&quot;_NEW&quot;&gt;\nhttp://imgsparrow.co/image/N2&lt;/a&gt;","torrent":{"xt":"urn:btih:8e69bac6dcfd743d4f2e94df927d3346e22537d7","amp;dn":"Naani+The+Magic+Man+%282015%29+Hindi+-+480p+WebHD+-+X264+-+Team+IcTv","amp;tr":["udp%3A%2F%2Ftracker.openbittorrent.com%3A80","udp%3A%2F%2Fopen.demonii.com%3A1337","udp%3A%2F%2Ftracker.coppersurfer.tk%3A6969","udp%3A%2F%2Fexodus.desync.com%3A6969"],"infoHash":"8e69bac6dcfd743d4f2e94df927d3346e22537d7","infoHashBuffer":{"type":"Buffer","data":[142,105,186,198,220,253,116,61,79,46,148,223,146,125,51,70,226,37,55,215]},"announce":[],"urlList":[]}}